<svg id="Layer_1" data-name="Layer 1" xmlns="http://www.w3.org/2000/svg" viewBox="0 0 347.28773 289.58809">
  <defs>
    <style>
      .cls-1 {
        fill: #e0eef5;
      }
    </style>
  </defs>
  <title>pace_logo_SVG</title>
  <g>
    <path class="cls-1" d="M2410.89687,4189.81762a80.83564,80.83564,0,1,0-80.83564-80.83564A80.83644,80.83644,0,0,0,2410.89687,4189.81762Zm-35.72477-30.82117a10.104,10.104,0,1,1,0-14.2897A10.10252,10.10252,0,0,1,2375.1721,4158.99645Zm35.72477,20.71671a10.10445,10.10445,0,1,1,10.10445-10.10445A10.10494,10.10494,0,0,1,2410.89687,4179.71316Zm60.62673-80.83563a10.10445,10.10445,0,1,1-10.10445,10.10445A10.10428,10.10428,0,0,1,2471.52359,4098.87753Zm-24.90093-39.91a10.104,10.104,0,1,1,0,14.2897A10.10252,10.10252,0,0,1,2446.62267,4058.96751Zm0,85.73924a10.104,10.104,0,1,1,0,14.2897A10.10346,10.10346,0,0,1,2446.62267,4144.70675Zm-35.7258-106.45595a10.10445,10.10445,0,1,1-10.10445,10.10445A10.10428,10.10428,0,0,1,2410.89687,4038.2508Zm-22.86249,47.86766,22.86249-9.47073,22.86352,9.47073,9.47073,22.86352-9.47073,22.864-22.86352,9.47022-22.86249-9.47022-9.47176-22.864Zm-27.15095-27.15095a10.104,10.104,0,1,1,0,14.2897A10.10252,10.10252,0,0,1,2360.88343,4058.96751Zm-20.71774,50.01447a10.10445,10.10445,0,1,1,10.10445,10.10445A10.10494,10.10494,0,0,1,2340.16569,4108.982Z" transform="translate(-2237.24475 -3963.72607)"/>
    <path class="cls-1" d="M2245.69987,3980.63632h97.4569c-45.61248,25.36538-76.74018,72.99592-76.74018,128.19576,0,79.66728,64.813,144.48207,144.48028,144.48207h165.18048a8.45513,8.45513,0,1,0,0-16.91025H2478.638c45.61145-23.2516,76.73915-72.29407,76.73915-127.49339,0-79.66728-64.813-144.83546-144.48028-144.83546-0.0547,0-.10837-0.349-0.16307-0.349H2245.69987A8.45513,8.45513,0,1,0,2245.69987,3980.63632Zm165.18874,0c0.01135,0,.02271.38575,0.03406,0.38575,70.33175,0.01445,127.54422,57.35942,127.54422,127.69375,0,70.2884-57.13919,127.68808-127.407,127.68808h-0.17133c-0.01032,0-.02064-0.08541-0.031-0.08541-70.32556-.02167-127.53081-57.42883-127.53081-127.75852,0-70.2884,57.13919-127.92366,127.407-127.92366h0.15482Z" transform="translate(-2237.24475 -3963.72607)"/>
  </g>
</svg>
