<svg id="Layer_1" data-name="Layer 1" xmlns="http://www.w3.org/2000/svg" viewBox="0 0 641.96928 128.0543">
  <defs>
    <style>
      .cls-1 {
        fill: #e0eef5;
      }
    </style>
  </defs>
  <title>Pace_logo_long</title>
  <path class="cls-1" d="M3886.6354,4249h55.506c0.92024-2,1.32427-9.26313,1.32427-13.8044a62.50349,62.50349,0,0,0-118.25387-28.33716,62.6133,62.6133,0,0,0-111.74265-.12674,62.603,62.603,0,0,0-111.70389-.00947c-10.26336-20.45941-32.83122-34.33-57.27972-34.33-34.5062,0-62.4855,28.64833-62.4855,63.15444V4300h25v-14.27908a68.7885,68.7885,0,0,0,37.45807,11.44174,63.56591,63.56591,0,0,0,56.5817-34.50046c10.26336,20.45726,30.45651,34.50513,54.9043,34.50513,13.41744,0,27.05593-4.24818,35.05593-11.44641V4300h28v-26.952c12,14.6192,29.7883,24.02015,49.80033,24.02015a62.89479,62.89479,0,0,0,56.07857-34.50836,62.65322,62.65322,0,0,0,112.32841-.54707l-25.64253-7.05808a36.21635,36.21635,0,0,1-30.50255,17.29973c-15.56731,0-28.80885-8.25441-33.8386-23.25441h39.41177Zm-340.73648,21.701a36.01721,36.01721,0,1,1,36.01721-36.01721A36.01718,36.01718,0,0,1,3545.89892,4270.701Zm111.72686,0a36.01721,36.01721,0,1,1,36.01721-36.01721A36.01718,36.01718,0,0,1,3657.62578,4270.701ZM3803.27992,4249c-4.96945,15-18.27994,22.81129-33.92729,22.81129-19.8918,0-36.01721-16.6806-36.01721-36.57236s16.12541-35.15881,36.01721-35.15881c16.43658,0,30.29082,12.91988,34.611,26.91988h15.46681a59.83693,59.83693,0,0,0-.8298,10.10416A72.634,72.634,0,0,0,3819.75024,4249h-16.47032Zm77.79957-46.86759c14.86815,0,27.62915,7.86759,33.128,21.86759h-66.256C3853.45034,4210,3866.21134,4202.13241,3881.07949,4202.13241Z" transform="translate(-3301.49635 -4171.9457)"/>
  <g>
    <path class="cls-1" d="M3413.97445,4236.14985a35.73016,35.73016,0,1,0-35.72993,35.72993A35.73019,35.73019,0,0,0,3413.97445,4236.14985Zm-19.93932,15.7906a4.466,4.466,0,1,1,0,6.31615A4.4658,4.4658,0,0,1,3394.03513,4251.94046Zm-20.25684,11.00684a4.46624,4.46624,0,1,1,4.46624,4.46624A4.46616,4.46616,0,0,1,3373.77829,4262.9473Zm-17.865-26.79745a4.46624,4.46624,0,1,1-4.46624-4.46624A4.46646,4.46646,0,0,1,3355.91332,4236.14985Zm6.54015-15.7906a4.466,4.466,0,1,1,0-6.31615A4.4658,4.4658,0,0,1,3362.45347,4220.35925Zm0,37.89735a4.466,4.466,0,1,1,0-6.31615A4.46539,4.46539,0,0,1,3362.45347,4258.2566Zm20.2573-48.9042a4.46624,4.46624,0,1,1-4.46624-4.46624A4.46646,4.46646,0,0,1,3382.71077,4209.35241Zm9.82573,26.79745-4.18659,10.10607-10.10538,4.1859-10.10584-4.1859-4.18613-10.10607,4.18613-10.10584,10.10584-4.18613,10.10538,4.18613Zm7.81432-15.7906a4.466,4.466,0,1,1,0-6.31615A4.4658,4.4658,0,0,1,3400.35082,4220.35925Zm4.69115,20.25684a4.46624,4.46624,0,1,1,4.46624-4.46624A4.46616,4.46616,0,0,1,3405.042,4240.61609Z" transform="translate(-3301.49635 -4171.9457)"/>
    <path class="cls-1" d="M3455,4175.68293a3.73741,3.73741,0,0,0-3.73723-3.73723h-72.94617c-0.02418,0-.0479.15425-0.07208,0.15425a64.06771,64.06771,0,0,0-63.86131,64.0183c0,24.39849,13.75867,46.07562,33.91925,56.353h-43.06889a3.73723,3.73723,0,1,0,0,7.47445h73.01095a63.934,63.934,0,0,0,63.86131-63.86211c0-24.39872-13.75867-45.45176-33.91971-56.66344h43.07664A3.73741,3.73741,0,0,0,3455,4175.68293Zm-76.68339,3.73723a56.50692,56.50692,0,0,1-.05474,113.01334c-0.00456,0-.00912.03775-0.01369,0.03775h-0.07573a56.44038,56.44038,0,0,1,.06067-112.88059c0.005,0,.01-0.17051.01506-0.17051h0.06843Z" transform="translate(-3301.49635 -4171.9457)"/>
  </g>
</svg>
